<svg class="banner-img" width="1433" height="257" viewBox="0 0 1433 257" fill="none" xmlns="http://www.w3.org/2000/svg">

    <defs>
        <pattern id="grid" width="40" height="40" patternUnits="userSpaceOnUse">
            <rect width="40" height="40" fill="white" />
            <path d="M 40 0 L 0 0 0 40" fill="none" stroke="#f0f0f0" stroke-width="1" />
            <path d="M 0 40 L 40 40" fill="none" stroke="#f0f0f0" stroke-width="1" />
        </pattern>









        <style>
            /* Chips Styles */
            @keyframes float-chip {

                0%,
                100% {
                    transform: translateY(0px) rotate(0deg);
                }

                50% {
                    transform: translateY(-12px) rotate(1deg);
                }
            }

            .float-chip-1 {
                animation: float-chip 8s ease-in-out infinite;
                transform-origin: center;
                transform-box: fill-box;
            }

            .float-chip-2 {
                animation: float-chip 7s ease-in-out infinite 2s;
                transform-origin: center;
                transform-box: fill-box;
            }

            .float-chip-3 {
                animation: float-chip 9s ease-in-out infinite 1s;
                transform-origin: center;
                transform-box: fill-box;
            }

            .float-chip-4 {
                animation: float-chip 8s ease-in-out infinite 3s;
                transform-origin: center;
                transform-box: fill-box;
            }

            .float-chip-5 {
                animation: float-chip 6s ease-in-out infinite 0.5s;
                transform-origin: center;
                transform-box: fill-box;
            }

            .float-chip-6 {
                animation: float-chip 10s ease-in-out infinite 4s;
                transform-origin: center;
                transform-box: fill-box;
            }

            .chip-group rect {
                fill: rgba(0, 192, 102, 0.05);
                stroke: rgba(0, 192, 102, 0.2);
                stroke-width: 1.5;
                transition: all 0.3s ease;
            }

            .chip-group:hover rect {
                fill: rgba(0, 192, 102, 0.15);
                stroke: rgba(0, 192, 102, 0.5);
            }

            .chip-group text {
                font-family: 'Inter', system-ui, -apple-system, sans-serif;
                font-size: 13px;
                font-weight: 600;
                fill: #00C066;
                text-anchor: middle;
                dominant-baseline: middle;
                pointer-events: none;
            }

            @keyframes typing-effect {
                0% {
                    opacity: 0;
                    clip-path: inset(0 100% 0 0);
                }

                5%,
                20% {
                    opacity: 1;
                    clip-path: inset(0 0 0 0);
                }

                25%,
                100% {
                    opacity: 0;
                    clip-path: inset(0 0 0 0);
                }
            }

            .text-typing {
                opacity: 0;
                animation: typing-effect 16s ease-out infinite;
                font-family: 'Inter', system-ui, -apple-system, sans-serif;
                font-weight: 700;
                font-size: 28px;
                text-anchor: middle;
                fill: #00C066;
            }
        </style>
    </defs>
    <rect width="1433" height="257" fill="url(#grid)" />

    <path d="M839.112 147.392H823.547V157.346H839.112V147.392Z" fill="#00C066" />
    <path d="M814.86 162.957H799.295V172.911H814.86V162.957Z" fill="#00C066" />
    <path
        d="M884.614 150.649V129.474H872.85V115.719H864.886V129.474H853.122V150.649H846.606V103.049H833.394V98.5247H815.838V94H798.463V98.5247H781.993V103.049H767.695V150.468H760.094V129.293H748.329V115.538H740.366V129.293H728.602V150.468H721V225.579H738.375V198.973H750.32V225.579H797.015V194.63H817.286V225.579H845.52V225.76H862.895V199.154H874.84V225.76H892.215V150.649H884.614ZM727.244 159.699H734.122V165.129H727.244V159.699ZM727.335 174.902H734.212V180.332H727.335V174.902ZM734.303 195.535H727.425V190.105H734.303V195.535ZM752.311 146.487H736.384V143.229H752.311V146.487ZM752.311 141.781H736.384V138.523H752.311V141.781ZM752.311 137.075H736.384V133.818H752.311V137.075ZM754.573 159.699H761.451V165.129H754.573V159.699ZM754.664 174.902H761.541V180.332H754.664V174.902ZM761.632 195.535H754.754V190.105H761.632V195.535ZM789.776 186.485H777.107V180.875H789.776V186.485ZM789.776 170.377H777.107V164.767H789.776V170.377ZM789.776 154.269H777.107V148.659H789.776V154.269ZM789.776 138.161H777.107V132.551H789.776V138.161ZM789.776 122.053H777.107V116.443H789.776V122.053ZM813.485 186.485H800.816V180.875H813.485V186.485ZM813.485 170.377H800.816V164.767H813.485V170.377ZM813.485 154.269H800.816V148.659H813.485V154.269ZM813.485 138.161H800.816V132.551H813.485V138.161ZM813.485 122.053H800.816V116.443H813.485V122.053ZM837.195 186.485H824.526V180.875H837.195V186.485ZM837.195 170.377H824.526V164.767H837.195V170.377ZM837.195 154.269H824.526V148.659H837.195V154.269ZM837.195 138.161H824.526V132.551H837.195V138.161ZM837.195 122.053H824.526V116.443H837.195V122.053ZM851.764 159.88H858.642V165.31H851.764V159.88ZM851.855 175.083H858.732V180.513H851.855V175.083ZM858.823 195.716H851.945V190.286H858.823V195.716ZM876.831 146.668H860.904V143.41H876.831V146.668ZM876.831 141.962H860.904V138.704H876.831V141.962ZM876.831 137.256H860.904V133.999H876.831V137.256ZM879.094 159.88H885.971V165.31H879.094V159.88ZM879.184 175.083H886.062V180.513H879.184V175.083ZM886.152 195.716H879.275V190.286H886.152V195.716Z"
        fill="#C8C8C8" />
    <path
        d="M753.648 116.125L754.898 116.918L754.139 115.537C754.354 115.366 754.62 115.271 754.895 115.267C754.902 115.267 754.909 115.267 754.916 115.267C755.002 115.269 755.089 115.262 755.175 115.248L755.599 115.517L755.417 115.187C755.718 115.082 755.977 114.885 756.159 114.624L756.918 115.105L756.438 114.233C756.64 113.973 756.897 113.761 757.191 113.612C757.485 113.464 757.809 113.382 758.138 113.374C758.927 113.374 759.63 113.844 760.084 114.575C760.218 114.793 760.407 114.973 760.633 115.095C760.859 115.216 761.113 115.276 761.37 115.268C761.384 115.267 761.398 115.267 761.412 115.267C762.283 115.267 762.989 116.255 762.989 117.473C762.989 118.691 762.283 119.679 761.412 119.679C761.221 119.678 761.032 119.631 760.863 119.541C760.566 119.397 760.242 119.319 759.912 119.313C759.583 119.306 759.256 119.372 758.954 119.504C758.699 119.619 758.422 119.678 758.143 119.679C757.863 119.68 757.587 119.621 757.331 119.508C757.031 119.378 756.707 119.314 756.381 119.32C756.055 119.327 755.733 119.403 755.439 119.544C755.271 119.632 755.085 119.678 754.895 119.679C754.024 119.679 753.318 118.691 753.318 117.473C753.313 117.003 753.426 116.539 753.648 116.125Z"
        fill="#C8C8C8" />
    <path
        d="M814.868 158.171L807.647 165.391L804.226 161.97L802.894 163.302L807.643 168.051L816.2 159.503L814.868 158.171Z"
        fill="#00C066" />
    <path
        d="M837.854 141.701L830.633 148.921L827.212 145.5L825.88 146.832L830.629 151.581L839.186 143.033L837.854 141.701Z"
        fill="#00C066" />





    <g clip-path="url(#clip0_28_850)">
        <path
            d="M833.827 189.562L825.349 189.644C824.95 187.715 823.611 182.655 824.817 181.275C824.872 180.756 825.129 180.277 825.534 179.939C825.939 179.601 826.461 179.43 826.991 179.46C828.305 177.438 830.494 177.742 831.973 179.005C833.462 179.51 834.023 180.407 833.827 181.624C834.929 182.573 835.133 183.727 834.638 185.041L833.827 189.562Z"
            fill="#2F2E41" />
        <path
            d="M833.011 194.696L826.894 193.864L825.671 192.106C827.356 191.007 827.952 189.473 827.176 187.389L831.411 187.296C831.212 189.152 831.837 190.589 833.575 191.459L833.011 194.696Z"
            fill="#FFB9B9" />
        <path
            d="M825.448 248.927L825.214 252.07C825.203 252.213 825.224 252.356 825.274 252.489C825.324 252.623 825.403 252.745 825.505 252.846C825.607 252.948 825.73 253.027 825.865 253.078C826.001 253.129 826.146 253.151 826.291 253.142L827.933 253.044C828.009 253.04 828.083 253.019 828.15 252.983C828.217 252.947 828.275 252.897 828.32 252.837C828.365 252.776 828.396 252.707 828.411 252.633C828.426 252.56 828.424 252.484 828.405 252.411L827.494 248.827L825.448 248.927Z"
            fill="#B0B0B0" />
        <path
            d="M830.765 248.827L829.853 252.411C829.835 252.484 829.833 252.56 829.847 252.633C829.862 252.707 829.893 252.776 829.938 252.837C829.983 252.897 830.041 252.947 830.108 252.983C830.175 253.019 830.249 253.04 830.325 253.044L831.968 253.142C832.113 253.151 832.258 253.129 832.393 253.078C832.529 253.027 832.651 252.948 832.753 252.846C832.855 252.745 832.934 252.623 832.984 252.489C833.034 252.356 833.055 252.213 833.044 252.07L832.81 248.927L830.765 248.827Z"
            fill="#B0B0B0" />
        <path
            d="M832.917 249.364L830.7 249.145L828.494 225.961L827.66 249.07L825.482 248.994L821.812 216.989H835.834L832.917 249.364Z"
            fill="#00C066" />
        <path
            d="M829.529 188.869C831.868 188.869 833.763 187.005 833.763 184.706C833.763 182.407 831.868 180.544 829.529 180.544C827.19 180.544 825.294 182.407 825.294 184.706C825.294 187.005 827.19 188.869 829.529 188.869Z"
            fill="#FFB9B9" />
        <path
            d="M837.904 217.729L820.777 217.914C823.319 208.403 824.839 199.568 822.189 193.494L826.424 191.459C828.465 193.552 830.739 193.336 833.199 191.274L837.245 192.291C836.552 200.256 836.863 208.787 837.904 217.729Z"
            fill="#00C066" />
        <path
            d="M816.072 207.924L826.706 212.086L829.083 212.773C829.19 212.804 829.301 212.814 829.411 212.801C829.521 212.788 829.628 212.754 829.724 212.7C829.82 212.645 829.904 212.573 829.971 212.486C830.038 212.399 830.086 212.3 830.113 212.194C830.16 212.009 830.139 211.813 830.053 211.641C829.968 211.47 829.823 211.334 829.645 211.257L827.176 210.514L819.742 206.259L821.295 202.235L818.048 200.524L816.072 207.924Z"
            fill="#FFB9B9" />
        <path
            d="M816.166 200.339C818.189 201.114 819.799 202.439 821.06 204.224L825.012 198.581L822.189 193.494L816.166 200.339Z"
            fill="#00C066" />
        <path
            d="M834.302 184.032C832.583 183.596 830.893 183.537 829.25 184.089C828.204 184.587 826.948 184.541 825.55 184.13V179.978L833.094 180.175L834.302 184.032Z"
            fill="#2F2E41" />
        <path
            d="M826.67 203.074C826.338 203.074 826.019 203.204 825.784 203.435C825.549 203.667 825.417 203.98 825.416 204.307L825.911 214.493C825.912 214.82 826.044 215.134 826.279 215.365C826.514 215.596 826.833 215.726 827.166 215.726H832.825C833.158 215.726 833.477 215.596 833.712 215.365C833.947 215.134 834.079 214.82 834.08 214.493L834.575 204.307C834.574 203.98 834.442 203.667 834.207 203.435C833.972 203.204 833.653 203.074 833.321 203.074H826.67Z"
            fill="#3F3D56" />
        <path
            d="M842.73 207.154L833.461 210.782L832.762 211.056C832.739 211.064 832.717 211.071 832.694 211.079L830.351 211.756C830.051 211.843 829.637 211.446 829.394 211.172C829.274 211.04 829.206 210.871 829.202 210.694C829.199 210.517 829.26 210.344 829.374 210.208C829.407 210.171 829.442 210.137 829.481 210.107C829.571 210.038 829.677 209.992 829.79 209.973L832.13 209.52C832.214 209.504 832.295 209.475 832.369 209.433L833.461 208.807L839.128 205.564C839.286 205.474 839.406 205.332 839.467 205.163C839.528 204.994 839.526 204.809 839.461 204.642L838.379 201.838C838.313 201.666 838.312 201.477 838.378 201.305C838.443 201.133 838.57 200.99 838.734 200.903L840.527 199.959C840.629 199.905 840.743 199.875 840.859 199.87C840.975 199.866 841.09 199.887 841.197 199.933C841.304 199.978 841.398 200.047 841.474 200.134C841.549 200.221 841.604 200.323 841.633 200.434L843.189 206.259C843.237 206.437 843.216 206.627 843.132 206.792C843.047 206.957 842.904 207.086 842.73 207.154Z"
            fill="#FFB9B9" />
        <path
            d="M843.268 199.321C841.245 200.097 839.635 201.421 838.374 203.206L834.422 197.564L837.245 192.291L843.268 199.321Z"
            fill="#00C066" />

        <path
            d="M833.257 185.599L833.17 185.513L833.293 185.391L834.033 184.543L834.127 184.622L833.384 185.473L833.257 185.599Z"
            fill="white" />
        <path d="M825.27 185.083L825.191 185.177L825.933 185.785L826.013 185.691L825.27 185.083Z" fill="white" />
        <path d="M833.47 186.314L832.171 188.321L832.275 188.386L833.575 186.379L833.47 186.314Z" fill="white" />
        <path d="M825.407 186.314L825.302 186.379L826.602 188.386L826.706 188.321L825.407 186.314Z" fill="white" />
        <path
            d="M833.708 208.635V210.839L832.928 211.145C832.903 211.155 832.878 211.163 832.852 211.171L830.237 211.927C829.902 212.024 829.44 211.581 829.169 211.275C829.035 211.128 828.959 210.939 828.955 210.741C828.951 210.543 829.019 210.351 829.147 210.199C829.183 210.158 829.223 210.12 829.266 210.086C829.366 210.009 829.485 209.957 829.611 209.936L832.223 209.431C832.317 209.413 832.407 209.38 832.49 209.333L833.708 208.635Z"
            fill="white" />




        <path
            d="M822.541 202.423C822.788 202.423 822.988 202.226 822.988 201.983C822.988 201.74 822.788 201.543 822.541 201.543C822.294 201.543 822.093 201.74 822.093 201.983C822.093 202.226 822.294 202.423 822.541 202.423Z"
            fill="#3F3D56" />
        <path
            d="M768.642 187.209L760.788 188.516C760.594 188.549 760.394 188.51 760.228 188.406C760.062 188.302 759.941 188.142 759.888 187.955C759.32 185.942 758.134 183.316 759.286 181.997C759.345 181.442 759.619 180.931 760.051 180.57C760.483 180.209 761.041 180.026 761.607 180.059C763.01 177.9 765.348 178.224 766.927 179.572C768.517 180.112 769.116 181.069 768.907 182.369C769.594 182.96 769.954 183.626 770.03 184.357C770.066 184.763 770.013 185.173 769.875 185.557C769.737 185.942 769.518 186.294 769.231 186.589L768.642 187.209Z"
            fill="#2F2E41" />
        <path
            d="M767.421 193.288L761.332 192.935C761.929 191.589 762.167 190.293 761.929 189.062H766.466C766.456 190.007 766.934 191.641 767.421 193.288Z"
            fill="#9F616A" />
        <path
            d="M760.092 248.595L759.842 251.951C759.83 252.103 759.852 252.256 759.906 252.399C759.959 252.542 760.044 252.672 760.152 252.78C760.261 252.888 760.393 252.973 760.537 253.027C760.682 253.082 760.837 253.105 760.992 253.096L762.745 252.991C762.827 252.986 762.906 252.964 762.977 252.926C763.049 252.887 763.111 252.834 763.159 252.77C763.207 252.705 763.24 252.631 763.256 252.552C763.271 252.474 763.269 252.393 763.25 252.315L762.276 248.488L760.092 248.595Z"
            fill="#B0B0B0" />
        <path
            d="M765.769 248.488L764.796 252.315C764.776 252.393 764.774 252.474 764.79 252.552C764.805 252.631 764.838 252.705 764.887 252.77C764.935 252.834 764.997 252.887 765.068 252.926C765.14 252.964 765.219 252.986 765.3 252.991L767.054 253.096C767.208 253.105 767.363 253.082 767.508 253.027C767.653 252.973 767.784 252.888 767.893 252.78C768.002 252.672 768.086 252.542 768.139 252.399C768.193 252.256 768.215 252.103 768.204 251.951L767.954 248.595L765.769 248.488Z"
            fill="#B0B0B0" />
        <path
            d="M768.067 249.061L765.7 248.828L763.344 224.071L762.454 248.748L760.129 248.666L756.21 214.49H771.182L768.067 249.061Z"
            fill="#00C066" />
        <path
            d="M764.317 190.487C766.815 190.487 768.839 188.497 768.839 186.042C768.839 183.587 766.815 181.597 764.317 181.597C761.82 181.597 759.795 183.587 759.795 186.042C759.795 188.497 761.82 190.487 764.317 190.487Z"
            fill="#9F616A" />
        <path
            d="M769.414 183.919C767.579 183.605 765.774 183.562 764.02 183.96C762.903 184.32 761.561 184.287 760.069 183.99V180.993L768.125 181.136L769.414 183.919Z"
            fill="#2F2E41" />

        <path d="M759.767 186.058L759.688 186.152L760.481 186.801L760.56 186.708L759.767 186.058Z" fill="white" />
        <path d="M768.53 187.371L767.142 189.515L767.247 189.58L768.635 187.437L768.53 187.371Z" fill="white" />
        <path d="M759.912 187.371L759.807 187.437L761.195 189.58L761.299 189.515L759.912 187.371Z" fill="white" />
        <path
            d="M755.721 206.315L752.258 204.202L755.211 195.701C755.54 194.824 756.171 194.087 756.994 193.619L757.989 193.053L758.076 201.629L755.721 206.315Z"
            fill="#00C066" />
        <path
            d="M770.687 210.444L770.175 206.131C770.147 203.854 770.541 201.653 771.481 199.625L771.958 193.288L766.705 191.175C766.689 191.28 766.675 191.385 766.66 191.491L764.198 192.701L761.796 192.164L761.81 191.41L757.034 193.522C758.613 200.74 757.752 208.235 755.036 217.088L761.328 218.779L761.38 215.809L766.987 215.416C767.045 216.379 767.091 217.326 767.118 218.251C770.282 219.396 770.391 219.377 773.274 217.738C772.126 215.365 771.217 212.896 770.687 210.444Z"
            fill="#00C066" />
        <path d="M778.764 205.258L775.54 204.202L770.384 198.302L771.958 193.288L779.122 203.146L778.764 205.258Z"
            fill="#00C066" />
        <path
            d="M768.661 209.827C768.714 210.054 768.856 210.252 769.057 210.376C769.258 210.501 769.501 210.542 769.732 210.491L772.469 209.881L772.073 208.165L769.337 208.774C769.105 208.825 768.904 208.965 768.777 209.163C768.65 209.36 768.609 209.599 768.661 209.827V209.827Z"
            fill="#B0B0B0" />
        <path
            d="M771.123 207.84L772.675 210.657C775.285 209.941 777.548 207.685 779.719 205.024L779.122 203.146L775.421 204.085L771.123 207.84Z"
            fill="#00C066" />
        <path d="M750.885 199.005L753.865 199.528L760.676 209.047L757.057 208.21L750.885 199.005Z" fill="#B0B0B0" />
        <path
            d="M750.357 198.889C750.311 198.889 750.267 198.902 750.228 198.925C750.189 198.949 750.158 198.982 750.136 199.021C750.115 199.061 750.105 199.105 750.107 199.15C750.109 199.194 750.124 199.237 750.149 199.275L756.515 208.769C756.55 208.822 756.605 208.86 756.668 208.875L759.63 209.56C759.68 209.571 759.733 209.568 759.78 209.549C759.828 209.531 759.869 209.499 759.898 209.457C759.927 209.415 759.942 209.366 759.941 209.315C759.941 209.265 759.925 209.216 759.895 209.175L752.905 199.405C752.886 199.379 752.862 199.356 752.834 199.338C752.807 199.321 752.775 199.309 752.743 199.303L750.404 198.893C750.389 198.89 750.373 198.889 750.357 198.889Z"
            fill="#3F3D56" />
        <path
            d="M754.328 205.677L754.505 207.429L757.297 207.157C757.533 207.133 757.751 207.019 757.901 206.839C758.052 206.658 758.123 206.426 758.1 206.194C758.076 205.961 757.96 205.748 757.776 205.6C757.592 205.452 757.356 205.382 757.12 205.405L754.328 205.677Z"
            fill="#B0B0B0" />
        <path
            d="M751.9 205.474C751.904 206.072 752.148 206.643 752.579 207.064C753.01 207.486 753.593 207.722 754.2 207.723H754.659L754.994 204.985L752.226 204.006L751.9 205.474Z"
            fill="#00C066" />
        <path
            d="M768.163 186.732L768.076 186.646L768.208 186.517L768.998 185.611L769.092 185.69L768.299 186.599L768.163 186.732Z"
            fill="white" />
        <path d="M851.902 252.952H742V253.196H851.902V252.952Z" fill="#3F3D56" />
        <path
            d="M783.956 252.831H809.946V221.843C809.946 220.202 808.302 218.867 806.281 218.867H787.621C785.6 218.867 783.956 220.202 783.956 221.843V252.831Z"
            fill="#B0B0B0" />
        <path
            d="M785.936 251.549H807.966V225.284C807.966 223.893 806.572 222.761 804.859 222.761H789.042C787.329 222.761 785.936 223.893 785.936 225.284V251.549Z"
            fill="white" />
        <path
            d="M783.759 216.456C783.117 216.456 782.594 216.88 782.594 217.402V220.132C782.594 220.654 783.117 221.078 783.759 221.078H810.142C810.785 221.078 811.307 220.654 811.307 220.132V217.402C811.307 216.88 810.785 216.456 810.142 216.456H783.759Z"
            fill="#3F3D56" />
        <path
            d="M789.176 248.181C788.874 248.182 788.585 248.3 788.372 248.51C788.159 248.72 788.039 249.004 788.038 249.3C788.039 249.597 788.159 249.881 788.372 250.09C788.585 250.3 788.874 250.418 789.176 250.419H791.307V248.181H789.176Z"
            fill="#3F3D56" />
        <path
            d="M793.262 248.181H791.19V250.419H793.262C793.564 250.418 793.853 250.3 794.066 250.09C794.279 249.881 794.399 249.597 794.4 249.3C794.399 249.004 794.279 248.72 794.066 248.51C793.853 248.3 793.564 248.182 793.262 248.181Z"
            fill="#00C066" />
        <path opacity="0.2"
            d="M794.005 248.456C794.184 248.658 794.283 248.917 794.284 249.186C794.283 249.482 794.162 249.766 793.949 249.976C793.736 250.185 793.447 250.304 793.145 250.304H791.19V250.419H793.262C793.564 250.418 793.853 250.3 794.066 250.091C794.279 249.881 794.399 249.597 794.4 249.3C794.4 249.14 794.365 248.981 794.296 248.836C794.228 248.69 794.129 248.56 794.005 248.456Z"
            fill="black" />
        <path
            d="M798.79 231.329C798.582 231.114 798.297 230.988 797.995 230.979C797.694 230.971 797.401 231.08 797.181 231.282C796.962 231.486 796.834 231.767 796.825 232.063C796.817 232.36 796.927 232.648 797.134 232.864L798.595 234.388L800.251 232.853L798.79 231.329Z"
            fill="#3F3D56" />
        <path
            d="M801.593 234.252L800.171 232.77L798.515 234.304L799.936 235.787C800.144 236.002 800.429 236.127 800.731 236.136C801.032 236.145 801.325 236.036 801.545 235.833C801.764 235.629 801.892 235.348 801.901 235.052C801.91 234.756 801.799 234.468 801.593 234.252Z"
            fill="#00C066" />
        <path opacity="0.2"
            d="M801.899 234.971C801.873 235.238 801.749 235.487 801.55 235.671C801.33 235.874 801.037 235.983 800.736 235.974C800.434 235.965 800.149 235.839 799.941 235.624L798.6 234.226L798.515 234.304L799.936 235.786C800.144 236.002 800.429 236.127 800.731 236.136C801.032 236.145 801.325 236.036 801.545 235.833C801.664 235.723 801.757 235.589 801.818 235.44C801.879 235.291 801.907 235.131 801.899 234.971Z"
            fill="black" />
        <path
            d="M792.726 234.857C792.518 234.642 792.233 234.516 791.931 234.508C791.63 234.499 791.337 234.608 791.117 234.81C790.898 235.014 790.77 235.295 790.761 235.592C790.752 235.888 790.863 236.176 791.069 236.392L792.531 237.916L794.187 236.381L792.726 234.857Z"
            fill="#3F3D56" />
        <path
            d="M795.528 237.779L794.107 236.297L792.45 237.832L793.872 239.314C794.079 239.529 794.365 239.655 794.666 239.664C794.968 239.673 795.261 239.564 795.481 239.361C795.7 239.157 795.827 238.876 795.836 238.58C795.845 238.284 795.734 237.996 795.528 237.779Z"
            fill="#00C066" />
        <path opacity="0.2"
            d="M795.835 238.499C795.808 238.766 795.684 239.015 795.486 239.199C795.266 239.402 794.973 239.511 794.671 239.502C794.37 239.493 794.084 239.367 793.877 239.152L792.535 237.754L792.45 237.832L793.872 239.315C794.079 239.53 794.365 239.655 794.666 239.664C794.968 239.673 795.261 239.564 795.481 239.361C795.599 239.251 795.692 239.117 795.754 238.968C795.815 238.819 795.842 238.659 795.835 238.499Z"
            fill="black" />
        <path
            d="M798.79 238.142C798.582 237.927 798.297 237.801 797.995 237.792C797.694 237.783 797.401 237.892 797.181 238.095C796.962 238.299 796.834 238.58 796.825 238.876C796.817 239.173 796.927 239.46 797.134 239.677L798.595 241.201L800.251 239.666L798.79 238.142Z"
            fill="#3F3D56" />
        <path
            d="M801.593 241.064L800.171 239.582L798.515 241.117L799.936 242.599C800.144 242.814 800.429 242.94 800.731 242.949C801.032 242.958 801.325 242.849 801.545 242.646C801.764 242.442 801.892 242.161 801.901 241.865C801.91 241.568 801.799 241.281 801.593 241.064Z"
            fill="#00C066" />
        <path opacity="0.2"
            d="M801.899 241.783C801.873 242.051 801.749 242.299 801.55 242.484C801.33 242.686 801.037 242.795 800.736 242.787C800.434 242.778 800.149 242.652 799.941 242.437L798.6 241.038L798.515 241.117L799.936 242.599C800.144 242.814 800.429 242.94 800.731 242.949C801.032 242.957 801.325 242.849 801.545 242.646C801.664 242.536 801.757 242.401 801.818 242.253C801.879 242.104 801.907 241.944 801.899 241.783Z"
            fill="black" />
        <path
            d="M802.49 245.133C802.706 244.926 802.83 244.644 802.836 244.348C802.841 244.051 802.726 243.765 802.518 243.551C802.307 243.338 802.02 243.216 801.719 243.211C801.417 243.206 801.126 243.318 800.908 243.523L799.376 244.978L800.957 246.588L802.49 245.133Z"
            fill="#3F3D56" />
        <path
            d="M799.551 247.923L801.041 246.508L799.46 244.899L797.969 246.314C797.753 246.52 797.629 246.803 797.623 247.099C797.618 247.395 797.733 247.682 797.941 247.896C798.152 248.108 798.439 248.231 798.74 248.236C799.042 248.241 799.333 248.129 799.551 247.923Z"
            fill="#00C066" />
        <path opacity="0.2"
            d="M798.823 248.233C798.551 248.21 798.296 248.091 798.107 247.899C797.898 247.685 797.783 247.398 797.789 247.102C797.794 246.805 797.918 246.523 798.134 246.317L799.541 244.981L799.46 244.899L797.969 246.314C797.753 246.52 797.629 246.803 797.623 247.099C797.618 247.395 797.733 247.682 797.941 247.896C798.055 248.011 798.193 248.101 798.345 248.159C798.497 248.217 798.66 248.243 798.823 248.233Z"
            fill="black" />
        <path
            d="M794.321 241.605C794.538 241.398 794.662 241.116 794.667 240.819C794.673 240.523 794.558 240.237 794.349 240.023C794.139 239.81 793.852 239.688 793.55 239.683C793.249 239.678 792.957 239.79 792.74 239.995L791.208 241.45L792.789 243.06L794.321 241.605Z"
            fill="#3F3D56" />
        <path
            d="M791.382 244.395L792.873 242.98L791.291 241.371L789.801 242.786C789.585 242.992 789.46 243.275 789.455 243.571C789.45 243.867 789.564 244.154 789.773 244.368C789.983 244.58 790.27 244.703 790.572 244.708C790.873 244.713 791.165 244.6 791.382 244.395Z"
            fill="#00C066" />
        <path opacity="0.2"
            d="M790.655 244.705C790.382 244.682 790.128 244.563 789.938 244.37C789.729 244.157 789.615 243.87 789.62 243.574C789.625 243.277 789.75 242.995 789.966 242.788L791.372 241.453L791.291 241.371L789.801 242.786C789.585 242.992 789.46 243.275 789.455 243.571C789.45 243.867 789.564 244.154 789.773 244.368C789.887 244.483 790.024 244.573 790.176 244.631C790.328 244.689 790.492 244.715 790.655 244.705Z"
            fill="black" />
        <path
            d="M805.955 237.347C806.171 237.14 806.296 236.858 806.301 236.562C806.306 236.265 806.192 235.979 805.983 235.765C805.773 235.552 805.486 235.43 805.184 235.425C804.882 235.42 804.591 235.532 804.373 235.738L802.841 237.192L804.423 238.802L805.955 237.347Z"
            fill="#3F3D56" />
        <path
            d="M803.016 240.137L804.507 238.722L802.925 237.113L801.435 238.528C801.218 238.734 801.094 239.017 801.089 239.313C801.084 239.61 801.198 239.896 801.407 240.11C801.617 240.322 801.904 240.445 802.206 240.45C802.507 240.455 802.799 240.343 803.016 240.137Z"
            fill="#00C066" />
        <path opacity="0.2"
            d="M802.288 240.447C802.016 240.424 801.762 240.306 801.572 240.113C801.363 239.899 801.249 239.612 801.254 239.316C801.259 239.02 801.383 238.737 801.6 238.531L803.006 237.195L802.925 237.113L801.435 238.528C801.218 238.734 801.094 239.017 801.089 239.313C801.084 239.61 801.198 239.896 801.407 240.11C801.52 240.225 801.658 240.315 801.81 240.373C801.962 240.431 802.125 240.457 802.288 240.447Z"
            fill="black" />
        <path
            d="M803.369 246.171C803.162 245.956 802.876 245.83 802.575 245.822C802.273 245.813 801.98 245.922 801.76 246.124C801.542 246.328 801.414 246.609 801.405 246.906C801.396 247.202 801.507 247.49 801.713 247.706L803.174 249.23L804.831 247.695L803.369 246.171Z"
            fill="#3F3D56" />
        <path
            d="M806.172 249.093L804.751 247.611L803.094 249.146L804.516 250.628C804.723 250.843 805.009 250.969 805.31 250.978C805.612 250.987 805.904 250.878 806.125 250.675C806.343 250.471 806.471 250.19 806.48 249.894C806.489 249.598 806.378 249.31 806.172 249.093Z"
            fill="#00C066" />
        <path opacity="0.2"
            d="M806.479 249.813C806.452 250.08 806.328 250.329 806.129 250.513C805.909 250.716 805.617 250.825 805.315 250.816C805.014 250.807 804.728 250.681 804.52 250.466L803.179 249.068L803.094 249.146L804.516 250.628C804.723 250.844 805.009 250.969 805.31 250.978C805.612 250.987 805.904 250.878 806.125 250.675C806.243 250.565 806.336 250.431 806.397 250.282C806.458 250.133 806.486 249.973 806.479 249.813Z"
            fill="black" />
        <path
            d="M795.325 246.049C795.117 245.834 794.831 245.708 794.53 245.7C794.229 245.691 793.936 245.8 793.716 246.003C793.497 246.207 793.369 246.487 793.36 246.784C793.351 247.08 793.462 247.368 793.668 247.584L795.13 249.108L796.786 247.573L795.325 246.049Z"
            fill="#3F3D56" />
        <path
            d="M798.127 248.972L796.706 247.49L795.05 249.025L796.471 250.507C796.678 250.722 796.964 250.848 797.266 250.856C797.567 250.865 797.86 250.756 798.08 250.553C798.299 250.349 798.427 250.069 798.435 249.772C798.444 249.476 798.334 249.188 798.127 248.972Z"
            fill="#00C066" />
        <path opacity="0.2"
            d="M798.434 249.691C798.407 249.958 798.283 250.207 798.085 250.391C797.865 250.594 797.572 250.703 797.27 250.694C796.969 250.685 796.683 250.56 796.476 250.344L795.135 248.946L795.05 249.025L796.471 250.507C796.678 250.722 796.964 250.847 797.266 250.856C797.567 250.865 797.86 250.756 798.08 250.553C798.198 250.443 798.292 250.309 798.353 250.16C798.414 250.011 798.441 249.851 798.434 249.691Z"
            fill="black" />
        <path
            d="M797.589 242.036C797.589 242.408 797.459 242.768 797.219 243.056C796.98 243.344 796.647 243.543 796.276 243.617C796.059 243.66 795.836 243.66 795.619 243.617C795.249 243.542 794.915 243.344 794.676 243.056C794.437 242.768 794.306 242.408 794.306 242.036C794.306 241.664 794.437 241.303 794.676 241.015C794.915 240.727 795.249 240.529 795.619 240.454C795.836 240.411 796.059 240.411 796.276 240.454C796.647 240.529 796.98 240.727 797.219 241.015C797.459 241.303 797.589 241.664 797.589 242.036Z"
            fill="#00C066" />
        <path opacity="0.2"
            d="M796.276 240.454V243.617C796.059 243.66 795.836 243.66 795.619 243.617V240.454C795.836 240.411 796.059 240.411 796.276 240.454Z"
            fill="black" />
        <path
            d="M798.332 235.588C798.332 235.96 798.201 236.32 797.962 236.609C797.723 236.897 797.389 237.095 797.019 237.169C796.802 237.212 796.579 237.212 796.362 237.169C795.991 237.095 795.658 236.897 795.419 236.609C795.18 236.32 795.049 235.96 795.049 235.588C795.049 235.216 795.18 234.855 795.419 234.567C795.658 234.279 795.991 234.081 796.362 234.007C796.579 233.964 796.802 233.964 797.019 234.007C797.389 234.081 797.723 234.279 797.962 234.567C798.201 234.855 798.332 235.216 798.332 235.588Z"
            fill="#00C066" />
        <path opacity="0.2"
            d="M797.018 234.007V237.169C796.802 237.212 796.578 237.212 796.362 237.169V234.007C796.578 233.964 796.802 233.964 797.018 234.007Z"
            fill="black" />
        <path
            d="M798.332 244.834C798.332 245.205 798.201 245.566 797.962 245.854C797.723 246.142 797.389 246.34 797.019 246.415C796.802 246.458 796.579 246.458 796.362 246.415C795.991 246.34 795.658 246.142 795.419 245.854C795.18 245.566 795.049 245.205 795.049 244.833C795.049 244.462 795.18 244.101 795.419 243.813C795.658 243.525 795.991 243.327 796.362 243.252C796.579 243.209 796.802 243.209 797.019 243.252C797.389 243.327 797.723 243.525 797.962 243.813C798.201 244.101 798.332 244.462 798.332 244.834Z"
            fill="#00C066" />
        <path opacity="0.2"
            d="M797.018 243.252V246.415C796.802 246.458 796.578 246.458 796.362 246.415V243.252C796.578 243.209 796.802 243.209 797.018 243.252Z"
            fill="black" />
        <path
            d="M802.416 249.335C802.416 249.707 802.285 250.068 802.046 250.356C801.807 250.644 801.473 250.842 801.103 250.916C800.886 250.959 800.663 250.959 800.446 250.916C800.075 250.842 799.742 250.644 799.503 250.356C799.264 250.067 799.133 249.707 799.133 249.335C799.133 248.963 799.264 248.602 799.503 248.314C799.742 248.026 800.075 247.828 800.446 247.754C800.663 247.711 800.886 247.711 801.103 247.754C801.473 247.828 801.807 248.026 802.046 248.314C802.285 248.602 802.416 248.963 802.416 249.335Z"
            fill="#00C066" />
        <path opacity="0.2"
            d="M801.103 247.754V250.916C800.886 250.959 800.663 250.959 800.446 250.916V247.754C800.663 247.711 800.886 247.711 801.103 247.754Z"
            fill="black" />
        <path
            d="M806.024 241.053C806.296 241.311 806.47 241.654 806.515 242.023C806.56 242.393 806.473 242.766 806.271 243.08C806.152 243.263 805.997 243.421 805.815 243.545C805.503 243.755 805.127 243.854 804.75 243.823C804.373 243.792 804.018 243.635 803.745 243.377C803.473 243.118 803.3 242.776 803.255 242.406C803.21 242.037 803.296 241.664 803.498 241.35C803.617 241.167 803.772 241.009 803.954 240.885C804.266 240.674 804.642 240.576 805.019 240.607C805.397 240.637 805.751 240.795 806.024 241.053Z"
            fill="#00C066" />
        <path opacity="0.2"
            d="M803.954 240.885L806.271 243.08C806.152 243.263 805.997 243.421 805.815 243.545L803.499 241.35C803.617 241.167 803.772 241.009 803.954 240.885Z"
            fill="black" />
        <path
            d="M806.519 244.581C806.791 244.839 806.965 245.182 807.01 245.551C807.055 245.921 806.969 246.294 806.766 246.608C806.647 246.791 806.492 246.949 806.31 247.073C805.998 247.283 805.622 247.382 805.245 247.351C804.868 247.32 804.513 247.163 804.241 246.905C803.968 246.647 803.795 246.304 803.75 245.935C803.705 245.565 803.791 245.192 803.994 244.878C804.112 244.695 804.267 244.537 804.449 244.413C804.761 244.202 805.137 244.104 805.514 244.135C805.892 244.165 806.246 244.323 806.519 244.581Z"
            fill="#00C066" />
        <path opacity="0.2"
            d="M804.449 244.413L806.766 246.608C806.647 246.791 806.492 246.949 806.31 247.072L803.994 244.878C804.113 244.695 804.267 244.537 804.449 244.413Z"
            fill="black" />
        <path
            d="M791.791 245.433C792.064 245.691 792.237 246.034 792.282 246.403C792.327 246.772 792.241 247.145 792.038 247.459C791.919 247.643 791.764 247.801 791.582 247.924C791.27 248.135 790.894 248.233 790.517 248.203C790.14 248.172 789.785 248.014 789.513 247.756C789.24 247.498 789.067 247.155 789.022 246.786C788.977 246.417 789.063 246.044 789.266 245.729C789.385 245.546 789.54 245.388 789.721 245.265C790.033 245.054 790.41 244.956 790.787 244.986C791.164 245.017 791.519 245.175 791.791 245.433Z"
            fill="#00C066" />
        <path opacity="0.2"
            d="M789.722 245.265L792.038 247.459C791.919 247.643 791.764 247.801 791.582 247.924L789.266 245.729C789.385 245.546 789.54 245.388 789.722 245.265Z"
            fill="black" />
        <path opacity="0.2" d="M786.493 216.456H785.874V220.957H786.493V216.456Z" fill="black" />
        <path opacity="0.2" d="M790.082 216.456H789.463V220.957H790.082V216.456Z" fill="black" />
        <path opacity="0.2" d="M793.671 216.456H793.052V220.957H793.671V216.456Z" fill="black" />
        <path opacity="0.2" d="M797.26 216.456H796.641V220.957H797.26V216.456Z" fill="black" />
        <path opacity="0.2" d="M800.849 216.456H800.23V220.957H800.849V216.456Z" fill="black" />
        <path opacity="0.2" d="M804.438 216.456H803.82V220.957H804.438V216.456Z" fill="black" />
        <path opacity="0.2" d="M808.028 216.456H807.409V220.957H808.028V216.456Z" fill="black" />
    </g>
    <g clip-path="url(#clip1_28_850)">
        <path d="M697.373 242.757L694.278 242.757L692.806 230.863L697.374 230.863L697.373 242.757Z" fill="#FFB8B8" />
        <path
            d="M698.163 245.746L688.183 245.746V245.62C688.183 244.594 688.592 243.609 689.321 242.884C690.049 242.158 691.037 241.75 692.067 241.75H692.068L698.163 241.75L698.163 245.746Z"
            fill="#2F2E41" />
        <path d="M711.033 235.176L709.024 237.522L698.987 230.917L701.952 227.455L711.033 235.176Z" fill="#FFB8B8" />
        <path
            d="M713.828 236.518L707.35 244.081L707.254 244C706.47 243.334 705.985 242.384 705.903 241.361C705.822 240.338 706.152 239.325 706.821 238.544L706.821 238.544L710.777 233.924L713.828 236.518Z"
            fill="#2F2E41" />
        <path d="M675.397 184.263L674.434 193.116L713.38 192.562L696.395 164.989L682.528 164.493L675.397 184.263Z"
            fill="#2F2E41" />
        <path opacity="0.28"
            d="M675.397 184.263L674.434 193.116L713.38 192.562L696.395 164.989L682.528 164.493L675.397 184.263Z"
            fill="black" />
        <path
            d="M683.056 185.783L681.681 193.883V201.124L692.767 204.729C692.767 204.729 691.469 232.851 693.199 234.642L693.156 238.966L697.992 239.185L698.032 236.142L700.082 213.396L701.29 196.696L699.332 184.035L683.056 185.783Z"
            fill="#2F2E41" />
        <path
            d="M691.644 192.756L681.681 201.123C681.681 201.123 681.098 216.22 682.579 217.991C683.85 219.512 700.392 232.628 700.392 232.628C700.392 232.628 703.332 235.315 704.98 235.358C706.628 235.401 708.544 231.958 708.544 231.958L704.728 229.069C704.728 229.069 694.843 219.876 691.908 216.22C690.723 214.745 690.723 214.598 690.723 214.598L691.128 208.462L695.2 197.075L691.644 192.756Z"
            fill="#2F2E41" />
        <path
            d="M681.067 152.674L676.771 152.279L672.874 152.926L664.623 152.928L663.92 158.886L671.45 160.565L673.285 159.669L680.934 162.573L681.067 152.674Z"
            fill="#2F2E41" />
        <path
            d="M686.197 152.656C686.197 152.656 695.314 151.805 697.387 153.427C699.46 155.05 703.902 187.214 703.902 187.214L686.197 188.21L683.023 186.034L683.924 169.976L686.197 152.656Z"
            fill="#9A9A9A" />
        <path d="M688.98 152.455L678.923 152.675L669.547 194.886L676.951 196.509L688.98 152.455Z" fill="#2F2E41" />
        <path
            d="M696.129 152.098L704.051 154.569L703.601 171.912L713.38 192.647L701.884 193.853L692.796 171.464L696.129 152.098Z"
            fill="#2F2E41" />
        <path
            d="M709.192 194.753C709.469 194.51 709.69 194.208 709.838 193.871C709.987 193.533 710.059 193.167 710.049 192.798C710.04 192.43 709.95 192.068 709.785 191.738C709.621 191.408 709.385 191.117 709.096 190.888L710.689 185.349L707.547 183.563L705.407 191.417C705.052 191.927 704.897 192.549 704.972 193.165C705.046 193.781 705.345 194.349 705.812 194.76C706.278 195.171 706.88 195.398 707.503 195.396C708.126 195.395 708.727 195.166 709.192 194.753Z"
            fill="#FFB8B8" />
        <path
            d="M699.46 155.05L704.147 154.645C704.147 154.645 708.355 159.03 709.313 162.426C710.27 165.821 711.307 176.444 711.307 176.444L710.874 191.984L705.395 188.277L705.028 174.91L699.46 155.05Z"
            fill="#2F2E41" />
        <path
            d="M698.329 147.239C700.089 144.031 698.906 140.009 695.686 138.255C692.466 136.502 688.429 137.681 686.669 140.889C684.909 144.097 686.092 148.119 689.312 149.873C692.532 151.627 696.569 150.448 698.329 147.239Z"
            fill="#FFB8B8" />
        <path
            d="M691.758 141.3C690.887 141.1 689.982 141.322 689.099 141.466C688.216 141.61 687.243 141.658 686.496 141.167C685.944 140.805 685.605 140.205 685.287 139.628C685.154 139.422 685.065 139.191 685.026 138.949C684.989 138.522 685.261 138.133 685.551 137.816C686.894 136.345 688.858 135.54 690.838 135.284C692.47 135.041 694.139 135.244 695.665 135.871C697.168 136.528 698.46 137.731 699.051 139.256C699.323 140.037 699.493 140.85 699.557 141.674C699.646 142.28 699.657 142.895 699.591 143.504C699.511 143.956 699.392 144.4 699.235 144.831L698.256 147.776C698.185 148.054 698.054 148.313 697.871 148.535C697.777 148.643 697.65 148.719 697.509 148.749C697.369 148.78 697.222 148.764 697.091 148.705C697.17 148.385 697.181 148.053 697.126 147.728C697.096 147.566 697.017 147.417 696.901 147.3C696.784 147.184 696.636 147.104 696.473 147.072C696.113 147.034 695.804 147.313 695.462 147.433C695.306 147.479 695.141 147.494 694.979 147.477C694.816 147.46 694.659 147.411 694.515 147.334C694.372 147.256 694.245 147.151 694.142 147.024C694.039 146.898 693.962 146.753 693.916 146.597C693.906 146.565 693.898 146.533 693.892 146.501C693.837 146.164 693.928 145.804 693.8 145.488C693.65 145.117 693.252 144.923 692.953 144.657C692.68 144.406 692.485 144.083 692.39 143.726C692.296 143.368 692.305 142.991 692.418 142.639C692.498 142.393 692.724 142.282 692.679 142C692.62 141.631 692.073 141.373 691.758 141.3Z"
            fill="#2F2E41" />
        <path d="M617.887 169.284H534V117H617.887V169.284Z" fill="white" />
        <path d="M617.887 169.284H534V117H617.887V169.284ZM534.383 168.903H617.504V117.382H534.383V168.903Z"
            fill="#3F3D56" />
        <path d="M607.64 241.7H559.76V189.416H607.64V241.7Z" fill="white" />
        <path d="M607.64 241.7H559.76V189.416H607.64V241.7ZM560.143 241.319H607.257V189.798H560.143V241.319Z"
            fill="#3F3D56" />
        <path d="M601.129 236.762H591.169V237.164H601.129V236.762Z" fill="#3F3D56" />
        <path d="M601.129 237.969H591.169V238.371H601.129V237.969Z" fill="#3F3D56" />
        <path d="M601.129 239.176H591.169V239.578H601.129V239.176Z" fill="#3F3D56" />
        <path
            d="M583.7 198.766V202.964C586.2 202.964 588.644 203.703 590.723 205.087C592.801 206.47 594.421 208.437 595.378 210.739C596.335 213.04 596.585 215.572 596.098 218.015C595.61 220.458 594.406 222.702 592.638 224.464L595.617 227.432C597.975 225.084 599.58 222.092 600.23 218.834C600.88 215.577 600.547 212.2 599.271 209.132C597.995 206.064 595.835 203.441 593.063 201.596C590.292 199.751 587.033 198.766 583.7 198.766Z"
            fill="#B0B0B0" />
        <path
            d="M595.617 227.432L592.638 224.464C590.477 226.617 587.606 227.917 584.556 228.123C581.506 228.33 578.485 227.427 576.052 225.584L573.502 228.927C576.747 231.384 580.775 232.587 584.841 232.312C588.907 232.037 592.736 230.303 595.617 227.432Z"
            fill="#575A89" />
        <path
            d="M571.059 215.558C571.059 213.904 571.386 212.267 572.022 210.739C572.657 209.211 573.588 207.822 574.762 206.653C575.936 205.483 577.329 204.556 578.863 203.923C580.396 203.29 582.04 202.964 583.7 202.964V198.766C580.172 198.766 576.732 199.869 573.867 201.92C571.001 203.971 568.854 206.866 567.728 210.197C566.602 213.529 566.553 217.128 567.589 220.488C568.625 223.849 570.693 226.8 573.502 228.927L576.052 225.584C574.499 224.411 573.241 222.895 572.374 221.155C571.508 219.416 571.058 217.5 571.059 215.558Z"
            fill="#00C066" />
        <path d="M678.503 209.261H630.623V156.977H678.503V209.261Z" fill="white" />
        <path d="M678.503 209.261H630.623V156.977H678.503V209.261ZM631.006 208.879H678.12V157.358H631.006V208.879Z"
            fill="#3F3D56" />
        <path d="M646.136 188.939H637.518V202.678H646.136V188.939Z" fill="#575A89" />
        <path d="M658.585 179.589H649.967V202.678H658.585V179.589Z" fill="#B0B0B0" />
        <path d="M671.034 168.712H662.416V202.678H671.034V168.712Z" fill="#00C066" />
        <path d="M673.907 203.06H635.219V163.178H635.602V202.678H673.907V203.06Z" fill="#3F3D56" />
        <path
            d="M664.58 158.369C666.036 158.369 667.217 157.192 667.217 155.74C667.217 154.289 666.036 153.112 664.58 153.112C663.123 153.112 661.942 154.289 661.942 155.74C661.942 157.192 663.123 158.369 664.58 158.369Z"
            fill="#FFB8B8" />
        <path
            d="M718.78 246H677.673C677.615 246 677.559 245.977 677.518 245.936C677.477 245.895 677.454 245.839 677.454 245.781C677.454 245.723 677.477 245.667 677.518 245.626C677.559 245.585 677.615 245.562 677.673 245.562H718.78C718.838 245.562 718.894 245.585 718.936 245.626C718.977 245.667 719 245.723 719 245.781C719 245.839 718.977 245.895 718.936 245.936C718.894 245.977 718.838 246 718.78 246Z"
            fill="#9A9A9A" />
        <path
            d="M606.237 158.35H545.65C545.6 158.35 545.551 158.33 545.516 158.295C545.48 158.259 545.46 158.211 545.46 158.161V129.228C545.46 129.178 545.48 129.13 545.516 129.095C545.551 129.059 545.6 129.039 545.65 129.039C545.7 129.039 545.748 129.059 545.784 129.095C545.819 129.13 545.839 129.178 545.839 129.228V157.972H606.237C606.262 157.972 606.286 157.977 606.31 157.986C606.333 157.996 606.354 158.01 606.371 158.027C606.389 158.045 606.403 158.066 606.413 158.089C606.422 158.111 606.427 158.136 606.427 158.161C606.427 158.186 606.422 158.21 606.413 158.233C606.403 158.256 606.389 158.277 606.371 158.295C606.354 158.312 606.333 158.326 606.31 158.336C606.286 158.345 606.262 158.35 606.237 158.35Z"
            fill="#3F3D56" />
        <path
            d="M558.595 156.272H553.084C552.935 156.272 552.792 156.213 552.686 156.107C552.581 156.002 552.521 155.86 552.521 155.711V148.143C552.521 147.994 552.581 147.851 552.686 147.746C552.792 147.641 552.935 147.582 553.084 147.582H558.595C558.744 147.582 558.887 147.641 558.993 147.746C559.098 147.851 559.157 147.994 559.158 148.143V155.711C559.157 155.86 559.098 156.002 558.993 156.107C558.887 156.213 558.744 156.272 558.595 156.272Z"
            fill="#00C066" />
        <path
            d="M568.644 156.272H563.133C562.984 156.272 562.841 156.213 562.736 156.107C562.63 156.002 562.571 155.86 562.571 155.711V140.964C562.571 140.815 562.63 140.673 562.736 140.567C562.841 140.462 562.984 140.403 563.133 140.403H568.644C568.793 140.403 568.936 140.462 569.042 140.567C569.147 140.673 569.207 140.815 569.207 140.964V155.711C569.207 155.86 569.147 156.002 569.042 156.107C568.936 156.213 568.793 156.272 568.644 156.272Z"
            fill="#00C066" />
        <path
            d="M578.693 156.272H573.183C573.034 156.272 572.89 156.213 572.785 156.107C572.679 156.002 572.62 155.86 572.62 155.711V148.143C572.62 147.994 572.679 147.851 572.785 147.746C572.89 147.641 573.034 147.582 573.183 147.582H578.693C578.843 147.582 578.986 147.641 579.091 147.746C579.197 147.851 579.256 147.994 579.256 148.143V155.711C579.256 155.86 579.197 156.002 579.091 156.107C578.986 156.213 578.843 156.272 578.693 156.272Z"
            fill="#00C066" />
        <path
            d="M588.742 156.272H583.232C583.086 156.275 582.945 156.22 582.839 156.12C582.734 156.02 582.673 155.882 582.669 155.736V138.105C582.673 137.959 582.734 137.821 582.839 137.721C582.945 137.621 583.086 137.566 583.232 137.569H588.742C588.888 137.566 589.029 137.621 589.135 137.721C589.24 137.821 589.302 137.959 589.305 138.105V155.736C589.302 155.882 589.24 156.02 589.135 156.12C589.029 156.22 588.888 156.275 588.742 156.272Z"
            fill="#00C066" />
        <path
            d="M598.792 156.272H593.281C593.132 156.271 592.989 156.212 592.883 156.107C592.778 156.002 592.718 155.86 592.718 155.711V133.029C592.718 132.881 592.778 132.738 592.883 132.633C592.989 132.528 593.132 132.469 593.281 132.469H598.792C598.941 132.469 599.084 132.528 599.19 132.633C599.295 132.738 599.354 132.881 599.355 133.029V155.711C599.354 155.86 599.295 156.002 599.19 156.107C599.084 156.212 598.941 156.271 598.792 156.272Z"
            fill="#00C066" />
        <path
            d="M555.839 145.315C556.468 145.315 556.977 144.807 556.977 144.181C556.977 143.555 556.468 143.048 555.839 143.048C555.211 143.048 554.702 143.555 554.702 144.181C554.702 144.807 555.211 145.315 555.839 145.315Z"
            fill="#3F3D56" />
        <path
            d="M565.889 137.947C566.517 137.947 567.026 137.44 567.026 136.814C567.026 136.188 566.517 135.68 565.889 135.68C565.26 135.68 564.751 136.188 564.751 136.814C564.751 137.44 565.26 137.947 565.889 137.947Z"
            fill="#3F3D56" />
        <path
            d="M575.938 145.315C576.566 145.315 577.076 144.807 577.076 144.181C577.076 143.555 576.566 143.048 575.938 143.048C575.31 143.048 574.8 143.555 574.8 144.181C574.8 144.807 575.31 145.315 575.938 145.315Z"
            fill="#3F3D56" />
        <path
            d="M585.987 134.358C586.616 134.358 587.125 133.85 587.125 133.224C587.125 132.598 586.616 132.091 585.987 132.091C585.359 132.091 584.85 132.598 584.85 133.224C584.85 133.85 585.359 134.358 585.987 134.358Z"
            fill="#3F3D56" />
        <path
            d="M596.037 130.202C596.665 130.202 597.174 129.694 597.174 129.068C597.174 128.442 596.665 127.935 596.037 127.935C595.408 127.935 594.899 128.442 594.899 129.068C594.899 129.694 595.408 130.202 596.037 130.202Z"
            fill="#3F3D56" />
        <path
            d="M575.962 144.435L565.889 136.918L555.953 144.332L555.726 144.03L565.889 136.446L575.914 143.927L585.876 133.065L585.916 133.049L595.966 129.015L596.107 129.365L586.098 133.383L575.962 144.435Z"
            fill="#3F3D56" />
    </g>
    <g clip-path="url(#clip2_28_850)">


        <path d="M398.271 140.425H377.958V140.727H398.271V140.425Z" fill="#C8C8C8" />
        <path d="M392.757 140.651H392.467V143.446H392.757V140.651Z" fill="#C8C8C8" />
        <path d="M383.907 140.651H383.616V143.446H383.907V140.651Z" fill="#C8C8C8" />
        <path d="M408.572 154.928H388.259V155.23H408.572V154.928Z" fill="#C8C8C8" />
        <path d="M394.063 152.209H393.773V155.004H394.063V152.209Z" fill="#C8C8C8" />
        <path d="M402.913 152.209H402.623V155.004H402.913V152.209Z" fill="#C8C8C8" />
        <path d="M435.558 161.726H415.246V162.028H435.558V161.726Z" fill="#C8C8C8" />
        <path d="M421.049 159.007H420.759V161.802H421.049V159.007Z" fill="#C8C8C8" />
        <path d="M429.9 159.007H429.61V161.802H429.9V159.007Z" fill="#C8C8C8" />
        <path d="M433.527 231.825H413.215V232.128H433.527V231.825Z" fill="#C8C8C8" />
        <path d="M419.018 229.106H418.728V231.901H419.018V229.106Z" fill="#C8C8C8" />
        <path d="M427.869 229.106H427.578V231.901H427.869V229.106Z" fill="#C8C8C8" />
        <path d="M398.851 183.33H378.538V183.632H398.851V183.33Z" fill="#C8C8C8" />
        <path d="M384.342 180.611H384.052V183.406H384.342V180.611Z" fill="#C8C8C8" />
        <path d="M393.192 180.611H392.902V183.406H393.192V180.611Z" fill="#C8C8C8" />
        <path d="M405.235 219.739H384.922V220.041H405.235V219.739Z" fill="#C8C8C8" />
        <path d="M390.726 217.02H390.436V219.815H390.726V217.02Z" fill="#C8C8C8" />
        <path d="M399.576 217.02H399.286V219.815H399.576V217.02Z" fill="#C8C8C8" />
        <path d="M437.735 208.711H417.422V209.013H437.735V208.711Z" fill="#C8C8C8" />
        <path d="M423.226 205.991H422.936V208.786H423.226V205.991Z" fill="#C8C8C8" />







        <path d="M347.054 188.316H326.741V188.618H347.054V188.316Z" fill="#C8C8C8" />
        <path d="M332.545 185.596H332.255V188.391H332.545V185.596Z" fill="#C8C8C8" />
        <path d="M341.395 185.596H341.105V188.391H341.395V185.596Z" fill="#C8C8C8" />
        <path d="M354.163 143.597H333.851V143.9H354.163V143.597Z" fill="#C8C8C8" />
        <path d="M348.65 143.824H348.36V146.619H348.65V143.824Z" fill="#C8C8C8" />
        <path d="M339.799 143.824H339.509V146.619H339.799V143.824Z" fill="#C8C8C8" />
        <path d="M374.621 173.359H354.308V173.661H374.621V173.359Z" fill="#C8C8C8" />
        <path d="M369.108 173.586H368.817V176.381H369.108V173.586Z" fill="#C8C8C8" />
        <path d="M360.257 173.586H359.967V176.381H360.257V173.586Z" fill="#C8C8C8" />
        <path d="M340.09 173.208H319.777V173.51H340.09V173.208Z" fill="#C8C8C8" />
        <path d="M334.576 173.435H334.286V176.23H334.576V173.435Z" fill="#C8C8C8" />
        <path d="M325.726 173.435H325.436V176.23H325.726V173.435Z" fill="#C8C8C8" />
        <path d="M364.465 158.101H344.152V158.403H364.465V158.101Z" fill="#C8C8C8" />
        <path d="M349.956 155.381H349.666V158.176H349.956V155.381Z" fill="#C8C8C8" />
        <path d="M358.806 155.381H358.516V158.176H358.806V155.381Z" fill="#C8C8C8" />
    </g>


    <defs>
        <clipPath id="clip0_28_850">
            <rect width="109.902" height="75.1958" fill="white" transform="translate(742 178)" />
        </clipPath>
        <clipPath id="clip1_28_850">
            <rect width="185" height="129" fill="white" transform="translate(534 117)" />
        </clipPath>
        <clipPath id="clip2_28_850">
            <rect width="130" height="113" fill="white" transform="translate(318 135)" />
        </clipPath>
        <clipPath id="clip3_28_850">
            <rect width="97" height="85" fill="white" transform="translate(439 163)" />
        </clipPath>
        <clipPath id="clip4_28_850">
            <rect width="110" height="57" fill="white" transform="translate(946 184)" />
        </clipPath>
        <clipPath id="clip5_28_850">
            <rect width="84.8363" height="79.052" fill="white" transform="translate(186 165.621)" />
        </clipPath>
        <clipPath id="clip6_28_850">
            <rect width="95.4408" height="41.4541" fill="white" transform="translate(851 203)" />
        </clipPath>
        <clipPath id="clip7_28_850">
            <rect width="113" height="73" fill="white" transform="translate(1241 171)" />
        </clipPath>
        <clipPath id="clip8_28_850">
            <rect width="134" height="87" fill="white" transform="translate(1095 163)" />
        </clipPath>







    </defs>

    <!-- Main Slogan with Typing Animation -->
    <g class="typing-text-group" transform="translate(716, 120)">
        <text class="text-typing" style="animation-delay: 0s;">Barishal University IT Society</text>
        <text class="text-typing" style="animation-delay: 4s;">Innovation | Community</text>
        <text class="text-typing" style="animation-delay: 8s;">Tech | Leadership | Robotics</text>
        <text class="text-typing" style="animation-delay: 12s;">Design | Build | Scale</text>
    </g>

    <!-- Floating Code Chips -->
    <g class="float-chip-1 chip-group">
        <rect x="450" y="40" width="120" height="36" rx="18" />
        <text x="510" y="58">UI/UXxx Design</text>
    </g>
    <g class="float-chip-2 chip-group">
        <rect x="850" y="30" width="120" height="36" rx="18" />
        <text x="910" y="48">Robotics</text>
    </g>
    <g class="float-chip-3 chip-group">
        <rect x="380" y="110" width="130" height="36" rx="18" />
        <text x="445" y="128">Leadership</text>
    </g>
    <g class="float-chip-4 chip-group">
        <rect x="980" y="100" width="140" height="36" rx="18" />
        <text x="1050" y="118">Community</text>
    </g>
    <g class="float-chip-5 chip-group">
        <rect x="420" y="180" width="130" height="36" rx="18" />
        <text x="485" y="198">Event Mgmt.</text>
    </g>
    <g class="float-chip-6 chip-group">
        <rect x="880" y="190" width="120" height="36" rx="18" />
        <text x="940" y="208">Content HQ</text>
    </g>
</svg>